# xmcd CD database file
#
# Track frame offsets:
#	183
#	16495
#	28890
#	41833
#	52808
#	64925
#	80840
#	95573
#	111450
#	122733
#	139203
#	154183
#	166113
#	179793
#	190918
#	204730
#	217565
#	230535
#	243618
#	256593
#
# Disc length: 3554 seconds
#
# Revision: 0
# Processed by: cddbd v1.5.2PL0 Copyright (c) Steve Scherf et al.
# Submitted via: CDex 1.40Release
#
DISCID=230de014
DTITLE=Billie Jo spears - Country Classics
DYEAR=1900
DGENRE=Country
TTITLE0=Blanket On The Ground
TTITLE1=What I've Got In Mind
TTITLE2=Today I Started Loving You Again
TTITLE3=Don't Ever Let Go Of Me
TTITLE4=All I Want Is You
TTITLE5=I've Never Loved Anyone More
TTITLE6=Say It Again
TTITLE7=I Fall To Pieces
TTITLE8=True Love
TTITLE9=Love Ain't The Question (Love Ain't The Answer)
TTITLE10=Every Time I Sing A Love Song
TTITLE11=I've Got To Go
TTITLE12=Since I Fell For You
TTITLE13=Come On Home
TTITLE14=What A Love I Have In You
TTITLE15=There's More To A Tear Than Meets The Eye
TTITLE16=What The World Needs Now Is Love
TTITLE17=Love Ain't Gonna Wait For Us
TTITLE18=I Love You Because
TTITLE19=Put A Little Love In Your Heart
EXTD=ID3G: 2
EXTT0=
EXTT1=
EXTT2=
EXTT3=
EXTT4=
EXTT5=
EXTT6=
EXTT7=
EXTT8=
EXTT9=
EXTT10=
EXTT11=
EXTT12=
EXTT13=
EXTT14=
EXTT15=
EXTT16=
EXTT17=
EXTT18=
EXTT19=
PLAYORDER=
